<?xml version="1.0" encoding="UTF-8" standalone="no"?>
<!DOCTYPE svg PUBLIC "-//W3C//DTD SVG 20010904//EN"
"http://www.w3.org/TR/2001/REC-SVG-20010904/DTD/svg10.dtd">
<!-- Created with Sodipodi ("http://www.sodipodi.com/") -->
<svg
   id="svg705"
   sodipodi:version="0.32"
   width="581.28000pt"
   height="517.88975pt"
   xml:space="preserve"
   sodipodi:docname="timemodule3.svg"
   sodipodi:docbase="/home/lion/my/tmp"
   xmlns="http://www.w3.org/2000/svg"
   xmlns:sodipodi="http://sodipodi.sourceforge.net/DTD/sodipodi-0.dtd"
   xmlns:xml="http://www.w3.org/XML/1998/namespace"
   xmlns:inkscape="http://www.inkscape.org/namespaces/inkscape"
   xmlns:xlink="http://www.w3.org/1999/xlink"
   inkscape:version="0.40"
   xmlns:rdf="http://www.w3.org/1999/02/22-rdf-syntax-ns#"
   xmlns:cc="http://web.resource.org/cc/"
   xmlns:dc="http://purl.org/dc/elements/1.1/"
   inkscape:export-filename="/home/lion/my/tmp/timemodule3.png"
   inkscape:export-xdpi="72.000000"
   inkscape:export-ydpi="72.000000">
  <metadata
     id="metadata2232">
    <rdf:RDF
       id="RDF2233">
      <cc:Work
         rdf:about=""
         id="Work2234">
        <dc:format
           id="format2235">image/svg+xml</dc:format>
        <dc:type
           id="type2237"
           rdf:resource="http://purl.org/dc/dcmitype/StillImage" />
      </cc:Work>
    </rdf:RDF>
  </metadata>
  <defs
     id="defs707" />
  <sodipodi:namedview
     id="base"
     inkscape:zoom="1.0000000"
     inkscape:cx="465.25952"
     inkscape:cy="314.16431"
     inkscape:window-width="1022"
     inkscape:window-height="692"
     inkscape:window-x="0"
     inkscape:window-y="26"
     inkscape:current-layer="svg705" />
  <g
     id="g745"
     transform="translate(-46.25000,-206.2500)">
    <g
       id="g720"
       transform="translate(-65.00000,59.99997)">
      <text
         style="font-size:24.000000;font-style:normal;font-weight:normal;fill:#000000;fill-opacity:1.0000000;stroke:none;stroke-width:1.0000000pt;stroke-linecap:butt;stroke-linejoin:miter;stroke-opacity:1.0000000;font-family:Bitstream Charter;text-anchor:start;writing-mode:lr"
         x="203.75"
         y="648.61218"
         id="text711"
         transform="translate(1.617012,1.840942)"><tspan
           id="tspan712">tuple</tspan></text>
      <path
         sodipodi:type="arc"
         style="fill:none;fill-opacity:1.0000000;fill-rule:evenodd;stroke:#000000;stroke-width:1.2500000;stroke-linecap:butt;stroke-linejoin:miter;stroke-opacity:1.0000000"
         id="path719"
         d="M 325.00000 472.98718 A 74.375000 33.125000 0 1 1  176.25000,472.98718 A 74.375000 33.125000 0 1 1  325.00000 472.98718 z"
         sodipodi:cx="250.62500"
         sodipodi:cy="472.98718"
         sodipodi:rx="74.375000"
         sodipodi:ry="33.125000"
         transform="translate(-18.75000,171.2500)" />
    </g>
    <g
       id="g725"
       transform="translate(58.75000,-103.7500)">
      <text
         style="font-size:24.000000;font-style:normal;font-weight:normal;fill:#000000;fill-opacity:1.0000000;stroke:none;stroke-width:1.0000000pt;stroke-linecap:butt;stroke-linejoin:miter;stroke-opacity:1.0000000;font-family:Bitstream Charter;text-anchor:start;writing-mode:lr"
         x="255"
         y="577.36218"
         id="text708"
         transform="translate(-0.294991,3.099030)"><tspan
           id="tspan709">seconds</tspan></text>
      <path
         sodipodi:type="arc"
         style="fill:none;fill-opacity:1.0000000;fill-rule:evenodd;stroke:#000000;stroke-width:1.2500000;stroke-linecap:butt;stroke-linejoin:miter;stroke-opacity:1.0000000"
         id="path718"
         d="M 325.00000 472.98718 A 74.375000 33.125000 0 1 1  176.25000,472.98718 A 74.375000 33.125000 0 1 1  325.00000 472.98718 z"
         sodipodi:cx="250.62500"
         sodipodi:cy="472.98718"
         sodipodi:rx="74.375000"
         sodipodi:ry="33.125000"
         transform="translate(45.00000,98.74997)" />
    </g>
    <g
       id="g730"
       transform="translate(110.0000,81.24997)">
      <text
         style="font-size:24.000000;font-style:normal;font-weight:normal;fill:#000000;fill-opacity:1.0000000;stroke:none;stroke-width:1.0000000pt;stroke-linecap:butt;stroke-linejoin:miter;stroke-opacity:1.0000000;font-family:Bitstream Charter;text-anchor:start;writing-mode:lr"
         x="401.25"
         y="631.11218"
         id="text714"
         transform="translate(0.409012,1.504944)"><tspan
           id="tspan715">string</tspan></text>
      <path
         sodipodi:type="arc"
         style="fill:none;fill-opacity:1.0000000;fill-rule:evenodd;stroke:#000000;stroke-width:1.2500000;stroke-linecap:butt;stroke-linejoin:miter;stroke-opacity:1.0000000"
         id="path717"
         d="M 325.00000 472.98718 A 74.375000 33.125000 0 1 1  176.25000,472.98718 A 74.375000 33.125000 0 1 1  325.00000 472.98718 z"
         sodipodi:cx="250.62500"
         sodipodi:cy="472.98718"
         sodipodi:rx="74.375000"
         sodipodi:ry="33.125000"
         transform="translate(181.2500,153.7500)" />
    </g>
    <g
       id="g735"
       transform="translate(-65.00000,-340.0000)">
      <text
         style="font-size:24.000000;font-style:normal;font-weight:normal;fill:#000000;fill-opacity:1.0000000;stroke:none;stroke-width:1.0000000pt;stroke-linecap:butt;stroke-linejoin:miter;stroke-opacity:1.0000000;font-family:Bitstream Charter;text-anchor:start;writing-mode:lr"
         x="203.75"
         y="648.61218"
         id="text736"
         transform="translate(1.617012,1.840942)"><tspan
           id="tspan737">tuple</tspan></text>
      <path
         sodipodi:type="arc"
         style="fill:none;fill-opacity:1.0000000;fill-rule:evenodd;stroke:#000000;stroke-width:1.2500000;stroke-linecap:butt;stroke-linejoin:miter;stroke-opacity:1.0000000"
         id="path739"
         d="M 325.00000 472.98718 A 74.375000 33.125000 0 1 1  176.25000,472.98718 A 74.375000 33.125000 0 1 1  325.00000 472.98718 z"
         sodipodi:cx="250.62500"
         sodipodi:cy="472.98718"
         sodipodi:rx="74.375000"
         sodipodi:ry="33.125000"
         transform="translate(-18.75000,171.2500)" />
    </g>
    <g
       id="g740"
       transform="translate(110.0000,-318.7500)">
      <text
         style="font-size:24.000000;font-style:normal;font-weight:normal;fill:#000000;fill-opacity:1.0000000;stroke:none;stroke-width:1.0000000pt;stroke-linecap:butt;stroke-linejoin:miter;stroke-opacity:1.0000000;font-family:Bitstream Charter;text-anchor:start;writing-mode:lr"
         x="401.25"
         y="631.11218"
         id="text741"
         transform="translate(0.409012,1.504944)"><tspan
           id="tspan742">string</tspan></text>
      <path
         sodipodi:type="arc"
         style="fill:none;fill-opacity:1.0000000;fill-rule:evenodd;stroke:#000000;stroke-width:1.2500000;stroke-linecap:butt;stroke-linejoin:miter;stroke-opacity:1.0000000"
         id="path744"
         d="M 325.00000 472.98718 A 74.375000 33.125000 0 1 1  176.25000,472.98718 A 74.375000 33.125000 0 1 1  325.00000 472.98718 z"
         sodipodi:cx="250.62500"
         sodipodi:cy="472.98718"
         sodipodi:rx="74.375000"
         sodipodi:ry="33.125000"
         transform="translate(181.2500,153.7500)" />
    </g>
  </g>
  <path
     style="fill:none;fill-opacity:1.0000000;fill-rule:evenodd;stroke:#000000;stroke-width:1.2500000;stroke-linecap:butt;stroke-linejoin:miter;stroke-dasharray:5.0000000 5.0000000 ;stroke-dashoffset:0.0000000;stroke-opacity:1.0000000"
     d="M 32.500000,325.71000 L 686.25000,329.46000"
     id="path771" />
  <text
     style="font-size:24.000000;font-style:normal;font-weight:normal;fill:#000000;fill-opacity:1.0000000;stroke:none;stroke-width:1.0000000pt;stroke-linecap:butt;stroke-linejoin:miter;stroke-opacity:1.0000000;font-family:Bitstream Charter;text-anchor:start;writing-mode:lr"
     x="581.25"
     y="519.862"
     id="text772"
     transform="translate(-21.25000,-206.2500)"><tspan
       id="tspan773">UTC / GMT</tspan></text>
  <text
     style="font-size:24.000000;font-style:normal;font-weight:normal;fill:#000000;fill-opacity:1.0000000;stroke:none;stroke-width:1.0000000pt;stroke-linecap:butt;stroke-linejoin:miter;stroke-opacity:1.0000000;font-family:Bitstream Charter;text-anchor:start;writing-mode:lr"
     x="585.55792"
     y="563.612"
     id="text775"
     transform="translate(-21.25000,-206.2500)"><tspan
       id="tspan776">Local Time</tspan></text>
  <g
     id="g707"
     transform="matrix(0.141066,0.000000,0.000000,0.141066,570.4428,165.0344)"
     style="stroke:#000000;stroke-width:2.6582999;stroke-opacity:1.0000000">
    <path
       style="fill:none;fill-opacity:1.0000000;fill-rule:evenodd;stroke-linecap:butt;stroke-linejoin:miter"
       d="M 331.25000,373.61220 C 331.25000,373.61220 323.75000,408.61220 321.25000,408.61220 C 318.75000,408.61220 308.75000,409.86220 308.75000,409.86220 L 305.00000,432.36220 L 312.50000,442.36220 L 303.75000,461.11220 L 307.50000,467.36220 L 293.75000,467.36220 L 311.25000,482.36220 L 318.75000,473.61220 L 308.75000,513.61220 L 312.50000,521.11220 L 308.75000,526.11220 L 306.25000,544.86220 L 312.50000,544.86220 L 312.50000,527.36220 L 320.00000,523.61220 L 316.25000,509.86220 L 332.50000,516.11220 L 332.50000,527.36220 L 341.25000,537.36220 L 327.50000,553.61220 L 326.25000,564.86220 L 320.00000,564.86220 C 320.00000,564.86220 331.25000,588.61220 331.25000,581.11220 C 331.25000,573.61220 332.50000,571.11220 332.50000,571.11220 L 348.75000,582.36220 L 347.50000,564.86220 L 356.25000,573.61220 L 368.75000,567.36220 L 371.25000,561.11220 L 383.75000,564.86220 L 368.75000,586.11220 L 385.00000,608.61220 L 395.00000,603.61220 L 395.00000,616.11220 L 386.25000,617.36220 L 386.25000,649.86220 L 360.00000,651.11220 L 332.50000,679.86220 L 356.25000,673.61220 L 358.75000,694.86220 L 352.50000,709.86220 L 317.50000,724.86220 C 317.50000,724.86220 323.75000,738.61220 326.25000,739.86220 C 328.75000,741.11220 348.75000,733.61220 348.75000,733.61220 L 350.00000,744.86220 L 367.50000,741.11220 L 373.75000,753.61220 L 385.00000,754.86220 L 410.00000,736.11220 L 392.50000,757.36220 L 390.00000,761.11220 L 380.00000,759.86220 L 355.00000,763.61220 L 351.25000,774.86220 L 342.50000,774.86220 L 338.75000,789.86220 L 302.50000,818.61220 C 302.50000,818.61220 296.25000,827.36220 302.50000,826.11220 C 308.75000,824.86220 320.00000,827.36220 320.00000,827.36220 L 337.50000,813.61220 L 362.50000,808.61220 L 371.25000,816.11220 L 378.75000,797.36220 L 401.25000,788.61220 L 411.25000,797.36220 L 430.00000,793.61220 L 436.25000,784.86220 L 450.00000,779.86220 L 465.00000,786.11220 L 486.25000,776.11220 L 503.75000,783.61220 L 537.50000,754.86220 C 537.50000,754.86220 546.25000,744.86220 540.00000,744.86220 C 533.75000,744.86220 506.25000,739.86220 506.25000,739.86220 L 521.25000,737.36220 L 520.00000,727.36220 L 533.75000,722.36220 L 546.25000,686.11220 C 546.25000,686.11220 532.50000,663.61220 530.00000,663.61220 C 527.50000,663.61220 503.75000,667.36220 503.75000,667.36220 L 497.50000,674.86220 L 488.75000,672.36220 L 500.00000,653.61220 L 463.75000,583.61220 L 443.75000,579.86220 L 428.75000,529.86220 L 395.00000,506.11220 L 380.00000,509.86220 L 400.00000,494.86220 L 390.00000,486.11220 L 421.25000,426.11220 L 375.00000,421.11220 L 348.75000,431.11220 L 363.75000,413.61220 L 355.00000,408.61220 L 376.25000,387.36220 L 383.75000,366.11220 L 331.25000,373.61220 z "
       id="path779" />
    <path
       style="fill:none;fill-opacity:1.0000000;fill-rule:evenodd;stroke-linecap:butt;stroke-linejoin:miter"
       d="M 296.25000,374.86220 L 270.00000,393.61220 L 271.25000,414.86220 L 293.75000,407.36220 L 296.25000,374.86220 z "
       id="path780" />
    <path
       style="fill:none;fill-opacity:1.0000000;fill-rule:evenodd;stroke-linecap:butt;stroke-linejoin:miter"
       d="M 270.00000,419.86220 L 256.25000,419.86220 L 257.50000,451.11220 L 267.50000,457.36220 L 270.00000,419.86220 z "
       id="path781" />
    <path
       style="fill:none;fill-opacity:1.0000000;fill-rule:evenodd;stroke-linecap:butt;stroke-linejoin:miter"
       d="M 278.75000,433.61220 L 291.25000,419.86220 L 307.50000,443.61220 L 303.75000,456.11220 L 296.25000,453.61220 L 300.00000,448.61220 L 290.00000,448.61220 L 278.75000,433.61220 z "
       id="path782" />
    <path
       style="fill:none;fill-opacity:1.0000000;fill-rule:evenodd;stroke-linecap:butt;stroke-linejoin:miter"
       d="M 292.50000,471.11220 L 286.25000,478.61220 L 297.50000,487.36220 L 285.00000,493.61220 L 308.75000,493.61220 L 310.00000,484.86220 L 292.50000,471.11220 z "
       id="path783" />
    <path
       style="fill:none;fill-opacity:1.0000000;fill-rule:evenodd;stroke-linecap:butt;stroke-linejoin:miter"
       d="M 310.00000,499.86220 L 296.25000,512.36220 L 285.00000,516.11220 L 281.25000,527.36220 L 291.25000,532.36220 L 303.75000,522.36220 L 310.00000,499.86220 z "
       id="path784" />
    <path
       style="fill:none;fill-opacity:1.0000000;fill-rule:evenodd;stroke-linecap:butt;stroke-linejoin:miter"
       d="M 308.75000,526.11220 C 308.75000,526.11220 303.75000,547.36220 306.25000,547.36220 C 308.75000,547.36220 326.25000,538.61220 326.25000,538.61220 L 320.00000,523.61220 L 315.00000,531.11220 L 308.75000,526.11220 z "
       id="path785" />
    <path
       style="fill:none;fill-opacity:1.0000000;fill-rule:evenodd;stroke-linecap:butt;stroke-linejoin:miter"
       d="M 345.00000,593.61220 L 348.75000,603.61220 L 340.00000,613.61220 L 333.75000,613.61220 L 345.00000,593.61220 z "
       id="path786" />
    <path
       style="fill:none;fill-opacity:1.0000000;fill-rule:evenodd;stroke-linecap:butt;stroke-linejoin:miter"
       d="M 355.00000,653.61220 L 351.25000,648.61220"
       id="path787" />
    <path
       style="fill:none;fill-opacity:1.0000000;fill-rule:evenodd;stroke-linecap:butt;stroke-linejoin:miter"
       d="M 355.00000,651.11220 L 347.50000,647.36220 L 340.00000,648.61220 L 340.00000,656.11220 L 346.25000,659.86220 L 355.00000,651.11220 z "
       id="path789" />
    <path
       style="fill:none;fill-opacity:1.0000000;fill-rule:evenodd;stroke-linecap:butt;stroke-linejoin:miter"
       d="M 445.00000,787.36220 L 460.00000,786.11220 L 453.75000,797.36220 L 445.00000,787.36220 z "
       id="path790" />
    <path
       style="fill:none;fill-opacity:1.0000000;fill-rule:evenodd;stroke-linecap:butt;stroke-linejoin:miter"
       d="M 315.00000,596.11220 L 296.25000,553.61220 L 285.00000,552.36220 L 263.75000,556.11220 L 273.75000,549.86220 L 257.50000,542.36220 L 228.75000,551.11220 L 227.50000,568.61220 L 213.75000,576.11220 L 228.75000,579.86220 L 218.75000,594.86220 L 200.00000,601.11220 L 172.50000,593.61220 L 175.00000,607.36220 L 168.75000,609.86220 L 187.50000,614.86220 L 186.25000,622.36220 L 175.00000,622.36220 L 175.00000,632.36220 L 165.00000,632.36220 L 163.75000,638.61220 L 180.00000,649.86220 C 180.00000,649.86220 196.25000,649.86220 198.75000,649.86220 C 201.25000,649.86220 202.50000,653.61220 202.50000,653.61220 L 193.75000,654.86220 L 181.25000,676.11220 L 170.00000,682.36220 L 192.50000,683.61220 L 171.25000,692.36220 L 172.50000,702.36220 L 162.50000,698.61220 L 147.50000,707.36220 L 172.50000,707.36220 L 152.50000,719.86220 L 158.75000,726.11220 L 177.50000,722.36220 L 158.75000,733.61220 L 177.50000,732.36220 L 172.50000,744.86220 L 185.00000,744.86220 L 243.75000,717.36220 L 243.75000,712.36220 L 262.50000,713.61220 L 270.00000,708.61220 L 280.00000,713.61220 L 282.50000,711.11220 L 278.75000,702.36220 L 288.75000,696.11220 L 288.75000,686.11220 L 297.50000,669.86220 L 288.75000,651.11220 L 295.00000,651.11220 L 292.50000,626.11220 L 285.00000,617.36220 L 298.75000,612.36220 L 302.50000,602.36220 L 315.00000,596.11220 z "
       id="path791" />
    <path
       style="fill:none;fill-opacity:1.0000000;fill-rule:evenodd;stroke-linecap:butt;stroke-linejoin:miter"
       d="M 373.75000,339.86220 L 375.00000,353.61220 L 370.00000,357.36220 L 378.75000,363.61220 L 382.50000,358.61220 L 392.50000,357.36220 L 388.75000,342.36220 L 373.75000,339.86220 z "
       id="path792" />
  </g>
  <path
     style="fill:none;fill-opacity:1.0000000;fill-rule:evenodd;stroke:#000000;stroke-width:1.0000000pt;stroke-linecap:butt;stroke-linejoin:miter;stroke-opacity:1.0000000"
     d="M 382.50000,288.61220 C 425.00000,301.94550 500.00000,400.27890 510.00000,456.11220"
     id="path738"
     sodipodi:nodetypes="cc" />
  <path
     style="fill:#000000;fill-opacity:1.0000000;fill-rule:evenodd;stroke:#000000;stroke-width:1.0000000pt;stroke-linecap:butt;stroke-linejoin:miter;stroke-opacity:1.0000000"
     d="M 510.00000,456.11220 L 510.00000,441.11220 L 500.00000,444.86220 L 510.00000,456.11220 z "
     id="path740" />
  <text
     style="font-size:12.000000;font-style:normal;font-weight:normal;fill:#000000;fill-opacity:1.0000000;stroke:none;stroke-width:1.0000000pt;stroke-linecap:butt;stroke-linejoin:miter;stroke-opacity:1.0000000;font-family:Bitstream Charter;text-anchor:start;writing-mode:lr"
     x="422.5"
     y="588.50403"
     id="text742"
     sodipodi:linespacing="100%"
     xml:space="preserve"
     transform="translate(-21.25000,-206.2500)"><tspan
       x="422.50000"
       y="588.50403"
       sodipodi:role="line"
       id="tspan745">ctime( sec )</tspan></text>
  <text
     style="font-size:12.000000;font-style:normal;font-weight:normal;fill:#000000;fill-opacity:1.0000000;stroke:none;stroke-width:1.0000000pt;stroke-linecap:butt;stroke-linejoin:miter;stroke-opacity:1.0000000;font-family:Bitstream Charter;text-anchor:start;writing-mode:lr"
     x="56.25"
     y="582.362"
     id="text747"
     sodipodi:linespacing="100%"
     xml:space="preserve"
     transform="translate(-21.25000,-206.2500)"><tspan
       x="56.250000"
       y="582.36200"
       sodipodi:role="line"
       id="tspan750">localtime( sec )</tspan></text>
  <path
     style="font-size:12.000000;fill:none;fill-rule:evenodd;stroke:#000000;stroke-width:1.0000000"
     d="M 217.50000,282.36220 C 175.00000,295.69550 100.00000,394.02890 90.000000,449.86220"
     id="path735"
     sodipodi:nodetypes="cc" />
  <path
     style="font-size:12.000000;fill-rule:evenodd;stroke:#000000;stroke-width:1.0000000"
     d="M 90.000000,449.86220 L 90.000000,434.86220 L 100.00000,438.61220 L 90.000000,449.86220 z "
     id="path737" />
  <path
     style="fill:none;fill-opacity:1.0000000;fill-rule:evenodd;stroke:#000000;stroke-width:1.0000000pt;stroke-linecap:butt;stroke-linejoin:miter;stroke-opacity:1.0000000"
     d="M 155.00000,448.61220 C 205.83330,403.61220 246.66670,352.36220 262.50000,302.36220"
     id="path759"
     sodipodi:nodetypes="cc" />
  <path
     style="fill:#000000;fill-opacity:1.0000000;fill-rule:evenodd;stroke:#000000;stroke-width:1.0000000pt;stroke-linecap:butt;stroke-linejoin:miter;stroke-opacity:1.0000000"
     d="M 262.50000,299.86220 L 252.50000,318.61220 L 262.50000,321.11220 L 262.50000,299.86220 z "
     id="path764" />
  <text
     style="font-size:12.000000;font-style:normal;font-weight:normal;fill:#000000;fill-opacity:1.0000000;stroke:none;stroke-width:1.0000000pt;stroke-linecap:butt;stroke-linejoin:miter;stroke-opacity:1.0000000;font-family:Bitstream Charter;text-anchor:start;writing-mode:lr"
     x="240"
     y="604.862"
     id="text765"
     sodipodi:linespacing="100%"
     xml:space="preserve"
     transform="translate(-21.25000,-206.2500)"><tspan
       x="240.00000"
       y="604.86200"
       sodipodi:role="line"
       id="tspan768">mktime( tuple )</tspan></text>
  <path
     style="fill:none;fill-opacity:1.0000000;fill-rule:evenodd;stroke:#000000;stroke-width:1.0000000pt;stroke-linecap:butt;stroke-linejoin:miter;stroke-opacity:1.0000000"
     d="M 206.25000,493.61220 C 274.16670,469.44550 353.33330,469.02890 412.50000,493.61220"
     id="path770"
     sodipodi:nodetypes="cc" />
  <path
     style="fill:none;fill-opacity:1.0000000;fill-rule:evenodd;stroke:#000000;stroke-width:1.0000000pt;stroke-linecap:butt;stroke-linejoin:miter;stroke-opacity:1.0000000"
     d="M 412.50000,514.08050 C 344.58330,538.24720 265.41670,538.66380 206.25000,514.08050"
     id="path772"
     sodipodi:nodetypes="cc" />
  <path
     style="fill:#000000;fill-opacity:1.0000000;fill-rule:evenodd;stroke:#000000;stroke-width:1.0000000pt;stroke-linecap:butt;stroke-linejoin:miter;stroke-opacity:1.0000000"
     d="M 411.25000,492.36220 L 387.50000,477.36220 L 382.50000,492.36220 L 411.25000,492.36220 z "
     id="path773" />
  <path
     style="fill:#000000;fill-opacity:1.0000000;fill-rule:evenodd;stroke:#000000;stroke-width:1.0000000pt;stroke-linecap:butt;stroke-linejoin:miter;stroke-opacity:1.0000000"
     d="M 205.00000,512.36220 L 233.75000,517.36220 L 226.25000,531.11220 L 205.00000,512.36220 z "
     id="path774" />
  <text
     style="font-size:12.000000;font-style:normal;font-weight:normal;fill:#000000;fill-opacity:1.0000000;stroke:none;stroke-width:1.0000000pt;stroke-linecap:butt;stroke-linejoin:miter;stroke-opacity:1.0000000;font-family:Bitstream Charter;text-anchor:start;writing-mode:lr"
     x="268.75"
     y="659.862"
     id="text776"
     sodipodi:linespacing="100%"
     xml:space="preserve"
     transform="translate(-21.25000,-206.2500)"><tspan
       x="268.75000"
       y="659.86200"
       sodipodi:role="line"
       id="tspan779">strftime( format, tuple )</tspan><tspan
       x="268.75000"
       y="671.86200"
       sodipodi:role="line"
       id="tspan781">asctime( tuple )</tspan></text>
  <text
     style="font-size:12.000000;font-style:normal;font-weight:normal;fill:#000000;fill-opacity:1.0000000;stroke:none;stroke-width:1.0000000pt;stroke-linecap:butt;stroke-linejoin:miter;stroke-opacity:1.0000000;font-family:Bitstream Charter;text-anchor:start;writing-mode:lr"
     x="271.25"
     y="754.86218"
     id="text783"
     sodipodi:linespacing="100%"
     xml:space="preserve"
     transform="translate(-21.25000,-206.2500)"><tspan
       x="271.25000"
       y="754.86218"
       sodipodi:role="line"
       id="tspan786">strptime( string [, format] )</tspan></text>
  <text
     style="font-size:12.000000;font-style:normal;font-weight:normal;fill:#004a00;fill-opacity:1.0000000;stroke:none;stroke-width:1.0000000pt;stroke-linecap:butt;stroke-linejoin:miter;stroke-opacity:1.0000000;font-family:Bitstream Charter;text-anchor:start;writing-mode:lr"
     x="238.75"
     y="793.61206"
     id="text788"
     sodipodi:linespacing="100%"
     xml:space="preserve"
     transform="translate(-21.25000,-206.2500)"><tspan
       x="238.75000"
       y="793.61206"
       sodipodi:role="line"
       id="tspan791">Format default is &quot;%a %b %d %H:%M:%S %Y&quot;,</tspan><tspan
       x="238.75000"
       y="805.61206"
       sodipodi:role="line"
       id="tspan793">Which matches &quot;asctime,&quot; and &quot;ctime&quot; assumptions.</tspan></text>
  <g
     id="g801"
     transform="translate(-21.25000,-206.2500)">
    <path
       style="fill:none;fill-opacity:1.0000000;fill-rule:evenodd;stroke:#004a00;stroke-width:1.0000000pt;stroke-linecap:butt;stroke-linejoin:miter;stroke-opacity:1.0000000"
       d="M 385.00000,777.98720 L 385.00000,759.86220"
       id="path798"
       sodipodi:nodetypes="cc" />
    <path
       style="fill:none;fill-opacity:1.0000000;fill-rule:evenodd;stroke:#004a00;stroke-width:1.0000000pt;stroke-linecap:butt;stroke-linejoin:miter;stroke-opacity:1.0000000"
       d="M 228.75000,788.61220 L 228.75000,779.86220 L 511.25000,777.36220 L 511.25000,786.11220"
       id="path799" />
    <path
       style="fill:none;fill-opacity:1.0000000;fill-rule:evenodd;stroke:#004a00;stroke-width:1.2500000;stroke-linecap:butt;stroke-linejoin:miter;stroke-opacity:1.0000000"
       d="M 355.62500,760.48720 L 408.12500,760.48720"
       id="path800"
       sodipodi:nodetypes="cc" />
  </g>
  <path
     style="fill:none;fill-opacity:1.0000000;fill-rule:evenodd;stroke:#000000;stroke-width:1.0000000pt;stroke-linecap:butt;stroke-linejoin:miter;stroke-opacity:1.0000000"
     d="M 252.50010,226.11200 L 172.50000,137.36200"
     id="path805" />
  <path
     style="fill:#000000;fill-opacity:1.0000000;fill-rule:evenodd;stroke:#000000;stroke-width:1.0000000pt;stroke-linecap:butt;stroke-linejoin:miter;stroke-opacity:1.0000000"
     d="M 168.75000,132.36200 L 176.25000,153.61200 L 186.25010,142.36200 L 168.75000,132.36200 z "
     id="path806" />
  <text
     style="font-size:12.000000;font-style:normal;font-weight:normal;fill:#000000;fill-opacity:1.0000000;stroke:none;stroke-width:1.0000000pt;stroke-linecap:butt;stroke-linejoin:miter;stroke-opacity:1.0000000;font-family:Bitstream Charter;text-anchor:start;writing-mode:lr"
     x="153.75005"
     y="402.36197"
     id="text807"
     transform="translate(-21.25000,-206.2500)"><tspan
       id="tspan808">gmtime( sec )</tspan></text>
  <path
     style="fill:none;fill-opacity:1.0000000;fill-rule:evenodd;stroke:#000000;stroke-width:1.0000000pt;stroke-linecap:butt;stroke-linejoin:miter;stroke-opacity:1.0000000"
     d="M 205.00000,86.112000 C 272.91670,61.945300 352.08330,61.528700 411.25000,86.112000"
     id="path810"
     sodipodi:nodetypes="cc" />
  <path
     style="fill:none;fill-opacity:1.0000000;fill-rule:evenodd;stroke:#000000;stroke-width:1.0000000pt;stroke-linecap:butt;stroke-linejoin:miter;stroke-opacity:1.0000000"
     d="M 411.25000,106.58030 C 343.33330,130.74700 264.16670,131.16360 205.00000,106.58030"
     id="path811"
     sodipodi:nodetypes="cc" />
  <path
     style="fill:#000000;fill-opacity:1.0000000;fill-rule:evenodd;stroke:#000000;stroke-width:1.0000000pt;stroke-linecap:butt;stroke-linejoin:miter;stroke-opacity:1.0000000"
     d="M 410.00000,84.862000 L 386.25000,69.862000 L 381.25000,84.862000 L 410.00000,84.862000 z "
     id="path812" />
  <path
     style="fill:#000000;fill-opacity:1.0000000;fill-rule:evenodd;stroke:#000000;stroke-width:1.0000000pt;stroke-linecap:butt;stroke-linejoin:miter;stroke-opacity:1.0000000"
     d="M 203.75000,104.86200 L 232.50000,109.86200 L 225.00000,123.61200 L 203.75000,104.86200 z "
     id="path813" />
  <text
     style="font-size:12.000000;font-style:normal;font-weight:normal;fill:#000000;fill-opacity:1.0000000;stroke:none;stroke-width:1.0000000pt;stroke-linecap:butt;stroke-linejoin:miter;stroke-opacity:1.0000000;font-family:Bitstream Charter;text-anchor:start;writing-mode:lr"
     x="267.5"
     y="252.36182"
     id="text814"
     sodipodi:linespacing="100%"
     xml:space="preserve"
     transform="translate(-21.25000,-206.2500)"><tspan
       x="267.50000"
       y="252.36182"
       sodipodi:role="line"
       id="tspan815">strftime( format, tuple )</tspan><tspan
       x="267.50000"
       y="264.36182"
       sodipodi:role="line"
       id="tspan817">asctime( tuple )</tspan></text>
  <text
     style="font-size:12.000000;font-style:normal;font-weight:normal;fill:#000000;fill-opacity:1.0000000;stroke:none;stroke-width:1.0000000pt;stroke-linecap:butt;stroke-linejoin:miter;stroke-opacity:1.0000000;font-family:Bitstream Charter;text-anchor:start;writing-mode:lr"
     x="270"
     y="347.362"
     id="text819"
     sodipodi:linespacing="100%"
     xml:space="preserve"
     transform="translate(-21.25000,-206.2500)"><tspan
       x="270.00000"
       y="347.36200"
       sodipodi:role="line"
       id="tspan820">strptime( string [, format] )</tspan></text>
  <text
     style="font-size:12.000000;font-style:normal;font-weight:normal;fill:#000000;fill-opacity:1.0000000;stroke:none;stroke-width:1.0000000pt;stroke-linecap:butt;stroke-linejoin:miter;stroke-opacity:1.0000000;font-family:Bitstream Charter;text-anchor:start;writing-mode:lr"
     x="313.75006"
     y="422.36197"
     id="text822"
     transform="translate(-21.25000,-206.2500)"><tspan
       id="tspan823">time()</tspan></text>
  <text
     style="font-size:12.000000;font-style:normal;font-weight:normal;fill:#000000;fill-opacity:1.0000000;stroke:none;stroke-width:1.0000000pt;stroke-linecap:butt;stroke-linejoin:miter;stroke-opacity:1.0000000;font-family:Bitstream Charter;text-anchor:start;writing-mode:lr"
     x="113.75002"
     y="259.862"
     id="text825"
     transform="translate(-21.25000,-206.2500)"><tspan
       id="tspan826">gmtime()</tspan></text>
  <text
     style="font-size:12.000000;font-style:normal;font-weight:normal;fill:#000000;fill-opacity:1.0000000;stroke:none;stroke-width:1.0000000pt;stroke-linecap:butt;stroke-linejoin:miter;stroke-opacity:1.0000000;font-family:Bitstream Charter;text-anchor:start;writing-mode:lr"
     x="112.50003"
     y="753.61206"
     id="text828"
     transform="translate(-21.25000,-206.2500)"><tspan
       id="tspan829">localtime()</tspan></text>
  <text
     style="font-size:12.000000;font-style:normal;font-weight:normal;fill:#000000;fill-opacity:1.0000000;stroke:none;stroke-width:1.0000000pt;stroke-linecap:butt;stroke-linejoin:miter;stroke-opacity:1.0000000;font-family:Bitstream Charter;text-anchor:start;writing-mode:lr"
     x="543.75012"
     y="754.86206"
     id="text831"
     transform="translate(-21.25000,-206.2500)"><tspan
       id="tspan832">ctime()</tspan><tspan
       sodipodi:role="line"
       id="tspan834"
       x="543.75012"
       y="766.86206">asctime()</tspan></text>
</svg>
